<?xml version="1.0" encoding="UTF-8"?>
<svg version="1.1" xmlns="http://www.w3.org/2000/svg" width="2084" height="2084">
<path d="M0 0 C6.02600676 0.00429358 12.05198221 -0.00563284 18.07797942 -0.01490762 C31.13452696 -0.03441403 44.19103447 -0.03695345 57.24759311 -0.03171242 C68.67081852 -0.02713001 80.09402824 -0.0277857 91.51725316 -0.03355277 C93.05794351 -0.03430967 94.59863385 -0.03506565 96.1393242 -0.03582071 C98.46179056 -0.03696607 100.78425692 -0.03811596 103.10672327 -0.03927995 C124.6505203 -0.04995895 146.19431217 -0.05473651 167.73811078 -0.04680979 C168.95212852 -0.04636403 168.95212852 -0.04636403 170.19067187 -0.04590927 C176.76045887 -0.04346107 183.33024581 -0.04084911 189.90003275 -0.03822513 C215.53683184 -0.02811723 241.17356545 -0.03649903 266.81035542 -0.05971968 C295.70234166 -0.08584726 324.59428852 -0.09862654 353.486287 -0.09153193 C356.57194677 -0.090816 359.65760655 -0.0901416 362.74326634 -0.08949149 C363.88268199 -0.08923677 363.88268199 -0.08923677 365.04511614 -0.08897691 C376.45816358 -0.08668421 387.87117414 -0.0946009 399.2842133 -0.10778296 C412.27159643 -0.12275787 425.2588937 -0.12345195 438.24627511 -0.10571205 C444.8603619 -0.09704702 451.4743208 -0.09496166 458.08840871 -0.1103636 C509.00142141 -0.22053457 509.00142141 -0.22053457 530.72881246 4.40683305 C532.33806494 4.72276658 533.94764108 5.03705744 535.55758405 5.34945333 C547.35375272 7.65698192 558.56619102 12.04452769 569.72881246 16.40683305 C570.44923726 16.68365922 571.16966207 16.9604854 571.91191792 17.24570024 C589.57240834 24.11678194 606.22634437 34.24590929 620.72881246 46.40683305 C621.28439839 46.86380571 621.83998433 47.32077837 622.41240621 47.79159868 C635.06144332 58.20099559 646.73619612 69.38668147 656.72881246 82.40683305 C657.14308492 82.93405962 657.55735738 83.46128618 657.98418355 84.0044893 C693.10698931 128.84100699 707.24182577 186.17967064 701.07256246 242.4576143 C699.24129205 255.86343932 695.8019576 269.02012478 692.52178121 282.1294893 C690.77577308 289.13313989 689.20114223 296.16683596 687.66631246 303.21933305 C685.60586203 312.64340511 683.36170906 322.0022438 680.97856832 331.34946001 C679.08386123 338.83882805 677.37732157 346.35975226 675.72881246 353.90683305 C673.64754388 363.43514075 671.38840826 372.89810578 668.97881246 382.3482393 C667.08415726 389.83804811 665.37741048 397.35934522 663.72881246 404.90683305 C661.64754388 414.43514075 659.38840826 423.89810578 656.97881246 433.3482393 C655.08415726 440.83804811 653.37741048 448.35934522 651.72881246 455.90683305 C649.64754388 465.43514075 647.38840826 474.89810578 644.97881246 484.3482393 C643.08415671 491.83805032 641.37747537 499.35935834 639.72881246 506.90683305 C637.88155462 515.36069071 635.92976496 523.77186684 633.79131246 532.15683305 C631.51159283 541.10400788 629.42266765 550.08203026 627.41631246 559.09433305 C624.41797647 572.54587026 621.21472741 585.94118538 617.92705464 599.3248018 C617.54713302 600.87166727 617.16724944 602.41854208 616.78740621 603.9654268 C616.60469167 604.70920579 616.42197713 605.45298479 616.23372579 606.21930254 C615.01898426 611.17937534 613.86081168 616.15018422 612.73052144 621.13022172 C601.26206833 671.21723912 578.34739681 719.90332362 542.72881246 757.40683305 C541.65989928 758.65135339 540.59706423 759.90112829 539.54131246 761.15683305 C530.51947494 771.50102028 520.569061 781.00181364 509.72881246 789.40683305 C508.39043221 790.48354171 507.05329133 791.56179194 505.71709371 792.64120805 C466.05805212 824.43446636 418.25478805 844.7356321 368.29131246 853.15683305 C367.04768941 853.36767534 365.80406636 853.57851762 364.52275777 853.79574907 C349.67224601 856.20851207 335.04251728 856.56788368 320.03740621 856.5748018 C317.90656179 856.57873597 315.77571767 856.5828362 313.64487386 856.58708513 C307.74050632 856.59649629 301.83616624 856.59725212 295.9317925 856.59530962 C292.13421165 856.59432473 288.33663488 856.59532304 284.53905416 856.59653032 C232.999949 856.60253996 181.46839453 856.03436679 129.93328071 855.44218624 C52.07984025 854.51994709 52.07984025 854.51994709 -25.77769542 854.16006792 C-28.96643705 854.15688766 -32.15514797 854.14984329 -35.34388041 854.14169633 C-65.3617369 854.05621263 -65.3617369 854.05621263 -95.27118754 856.40683305 C-96.55767192 856.55813676 -97.84415629 856.70944047 -99.16962504 856.86532915 C-102.25614384 857.26594852 -105.32420107 857.72043685 -108.39618754 858.21933305 C-109.47199077 858.39037553 -110.54779399 858.56141801 -111.65619731 858.7376436 C-121.32679645 860.32554529 -130.86263107 862.34373041 -140.37519145 864.69296587 C-142.38071456 865.18733019 -144.3883717 865.67308684 -146.39765239 866.15195024 C-183.31055667 874.96416672 -217.44247018 889.8260962 -251.27118754 906.71933305 C-252.68416118 907.4241884 -252.68416118 907.4241884 -254.12567973 908.14328325 C-264.03308918 913.09828657 -273.83917801 918.14459001 -283.39154887 923.75790727 C-286.1998581 925.36598871 -289.04433131 926.81434555 -291.95868754 928.21933305 C-338.9142007 951.32638821 -383.42392224 982.42644112 -426.27118754 1012.40683305 C-426.93263774 1012.86928422 -427.59408793 1013.3317354 -428.27558208 1013.80820024 C-438.58902685 1021.03025791 -448.80952721 1028.37850072 -459.00507426 1035.76571977 C-462.75763554 1038.48331479 -466.51462174 1041.19477778 -470.27118754 1043.90683305 C-471.77120901 1044.99013667 -473.271209 1046.07347001 -474.77118754 1047.15683305 C-501.77118754 1066.65683305 -501.77118754 1066.65683305 -504.0209434 1068.28158891 C-505.52184304 1069.36561722 -507.02265677 1070.44976447 -508.52338481 1071.53403032 C-512.25892721 1074.2327096 -515.99591008 1076.92934617 -519.73603129 1079.6216768 C-528.34333128 1085.82145219 -536.90721951 1092.07571601 -545.43793559 1098.38046587 C-550.6490009 1102.22648495 -555.89392958 1106.01926905 -561.17499614 1109.76840532 C-567.93011939 1114.57051675 -574.59852664 1119.49111928 -581.27118754 1124.40683305 C-581.93118754 1124.07683305 -582.59118754 1123.74683305 -583.27118754 1123.40683305 C-578.09470853 1100.96731765 -572.85032335 1078.5457012 -567.45868754 1056.15683305 C-563.09239531 1038.01876137 -558.75372345 1019.87442441 -554.45868754 1001.71933305 C-554.17972636 1000.5401732 -553.90076518 999.36101335 -553.61335063 998.14612138 C-550.57921388 985.30978973 -547.575044 972.46922233 -544.70868754 959.59433305 C-541.82915648 946.66393176 -538.74871123 933.7852379 -535.64618754 920.90683305 C-531.21667639 902.51889975 -526.81236427 884.12539009 -522.45868754 865.71933305 C-522.18099528 864.54558122 -521.90330302 863.37182939 -521.61719584 862.16250932 C-518.23839303 847.86959579 -514.92098751 833.56647626 -511.73090434 819.23031938 C-509.35704954 808.62778784 -506.77769068 798.07898277 -504.1870811 787.52786577 C-501.6062773 777.00969389 -499.12300148 766.479006 -496.77118754 755.90683305 C-494.06501486 743.74170165 -491.16023913 731.63511512 -488.18817973 719.53280962 C-485.60702771 709.01298836 -483.12336709 698.48064951 -480.77118754 687.90683305 C-478.06501486 675.74170165 -475.16023913 663.63511512 -472.18817973 651.53280962 C-469.60702771 641.01298836 -467.12336709 630.48064951 -464.77118754 619.90683305 C-462.06501486 607.74170165 -459.16023913 595.63511512 -456.18817973 583.53280962 C-453.60702771 573.01298836 -451.12336709 562.48064951 -448.77118754 551.90683305 C-446.06501486 539.74170165 -443.16023913 527.63511512 -440.18817973 515.53280962 C-437.60702771 505.01298836 -435.12336709 494.48064951 -432.77118754 483.90683305 C-430.06501486 471.74170165 -427.16023913 459.63511512 -424.18817973 447.53280962 C-421.60702771 437.01298836 -419.12336709 426.48064951 -416.77118754 415.90683305 C-414.06501486 403.74170165 -411.16023913 391.63511512 -408.18817973 379.53280962 C-405.60702675 369.01298445 -403.12351471 358.48061929 -400.77118754 347.90683305 C-397.32413603 332.42040255 -393.56488189 317.01605357 -389.78521037 301.60815752 C-388.55533985 296.58792005 -387.35239181 291.56192207 -386.17060161 286.53012407 C-379.967697 260.12649562 -372.39250211 235.17997759 -361.27118754 210.40683305 C-360.90187114 209.57103715 -360.53255473 208.73524126 -360.15204692 207.87411821 C-350.33681454 185.78125058 -337.84999856 164.69263493 -323.27118754 145.40683305 C-322.8196934 144.80661333 -322.36819926 144.2063936 -321.90302348 143.5879854 C-318.77628623 139.45759021 -315.55230601 135.41529872 -312.27118754 131.40683305 C-311.82855571 130.85978715 -311.38592387 130.31274126 -310.92987895 129.74911821 C-303.3825007 120.48655008 -295.06529964 111.99355983 -286.64618754 103.53183305 C-286.11724895 102.99762743 -285.58831035 102.4634218 -285.04334331 101.91302812 C-278.12033699 94.93678029 -270.97362704 88.53100876 -263.27118754 82.40683305 C-261.45610725 80.84733121 -259.64302429 79.28549494 -257.83368754 77.71933305 C-244.94802415 66.97570202 -230.83747331 57.69904123 -216.27118754 49.40683305 C-215.59442973 49.01576372 -214.91767192 48.62469438 -214.22040629 48.22177446 C-195.6382995 37.49969501 -176.48247865 28.59690459 -156.27118754 21.40683305 C-155.33436137 21.06909868 -154.3975352 20.7313643 -153.43232036 20.38339555 C-137.95488613 14.8442129 -122.37136001 10.70119937 -106.27118754 7.40683305 C-105.33017192 7.21105669 -104.38915629 7.01528032 -103.41962504 6.81357133 C-69.22254445 -0.15858986 -34.73568304 -0.04181523 0 0 Z M-93.08368754 123.46933305 C-94.24400493 123.76678422 -95.40432231 124.0642354 -96.59980083 124.37070024 C-122.32214388 131.23417252 -147.37278376 142.19739624 -169.27118754 157.40683305 C-169.84240336 157.79693559 -170.41361918 158.18703813 -171.00214458 158.58896196 C-187.76765008 170.05377886 -204.43162718 183.59613475 -217.27118754 199.40683305 C-218.2549116 200.57925453 -219.23936234 201.75106646 -220.22431254 202.92245805 C-227.55063857 211.70321152 -234.26731237 220.67265902 -240.27118754 230.40683305 C-240.73879497 231.15996782 -241.20640239 231.91310258 -241.68817973 232.68905962 C-253.08363506 251.25080656 -262.33711957 271.2469903 -267.75165629 292.39364946 C-268.28531979 294.46159552 -268.85291975 296.51785688 -269.42743754 298.5748018 C-272.24274185 308.78469843 -274.59110912 319.09012856 -276.89475322 329.42581499 C-279.5187525 341.19539552 -282.27554875 352.92989962 -285.08368754 364.65683305 C-288.53142751 379.06175147 -291.92935137 393.47697433 -295.27118754 407.90683305 C-298.7579249 422.95846435 -302.30432949 437.99470425 -305.89618754 453.02157915 C-309.07023717 466.30547278 -312.18866554 479.60141582 -315.27118754 492.90683305 C-318.75824537 507.95839124 -322.30432891 522.99470182 -325.89618754 538.02157915 C-329.07023738 551.30547367 -332.18855596 564.60144069 -335.27118754 577.90683305 C-339.00897182 594.0384098 -342.81256503 610.15327581 -346.65961528 626.25912797 C-349.40641729 637.76039086 -352.12126436 649.26871799 -354.8165977 660.78213823 C-357.62709692 672.77694742 -360.54354799 684.74455317 -363.47596049 696.71005571 C-366.18507662 707.77811291 -368.74797899 718.86817337 -371.17401958 730.00229204 C-372.96278609 738.16237387 -374.95823879 746.25708512 -377.02191997 754.35141313 C-378.91647593 761.84012554 -380.62282207 769.36040986 -382.27118754 776.90683305 C-384.3503621 786.42555405 -386.60531077 795.87955035 -389.01459575 805.31967485 C-391.26050734 814.19216662 -393.25001755 823.11490389 -395.17939067 832.06112993 C-396.50367213 838.15579221 -397.97463463 844.16315079 -399.7138145 850.15365922 C-400.39125465 852.50535463 -400.39125465 852.50535463 -400.27118754 855.40683305 C-396.74867941 854.08108623 -393.57816725 852.52306799 -390.34150004 850.6060518 C-389.39339458 850.04780717 -388.44528911 849.48956254 -387.46845317 848.91440141 C-385.94768168 848.01346757 -385.94768168 848.01346757 -384.39618754 847.09433305 C-304.98104737 800.43372424 -224.67679858 761.01905283 -106.25458598 740.71445024 C-104.12325531 740.49468947 -101.99381463 740.25627376 -99.86591411 740.00546587 C-80.61730923 737.75194596 -61.53042497 737.21045055 -42.15937114 737.28378618 C-39.61290032 737.28890867 -37.06642901 737.29379286 -34.5199573 737.2984575 C-6.68269539 737.36567944 21.15287896 737.66774018 48.98817446 737.98746184 C56.57995803 738.07446159 64.17178849 738.15702414 71.76362403 738.23934263 C85.36695356 738.38689369 98.97025686 738.53671732 112.57353902 738.68857133 C113.37732651 738.69754318 114.18111401 738.70651502 115.0092587 738.71575874 C122.33642962 738.79756585 129.66359878 738.87952878 136.99076772 738.96151292 C141.86829256 739.01608348 146.74581789 739.07061092 151.62334371 739.12509477 C152.42547529 739.13405576 153.22760688 739.14301674 154.05404548 739.15224928 C167.62533469 739.30377902 181.19665199 739.45264177 194.76798999 739.59973419 C202.30433643 739.68152543 209.84066377 739.76461191 217.37695622 739.85124528 C232.50866652 740.02478924 247.64029974 740.18519937 262.77253091 740.30660713 C269.51394319 740.36070653 276.25509314 740.42166814 282.99627614 740.49866045 C289.78981359 740.57597552 296.58324181 740.62975919 303.37709856 740.66992986 C305.8904699 740.68809945 308.40380388 740.71319653 310.91702271 740.74631345 C333.77639194 741.03900513 356.02587048 738.89501513 377.72881246 731.40683305 C378.97662496 731.00077837 380.22443746 730.59472368 381.51006246 730.1763643 C399.2075583 724.17928132 416.05535526 714.93735527 430.72881246 703.40683305 C431.61697652 702.73909868 432.50514058 702.0713643 433.42021871 701.38339555 C474.83033237 669.16867225 493.66773992 623.34475843 504.48125386 573.56821001 C506.07992514 566.22772229 507.80719129 558.9354736 509.66631246 551.65683305 C512.11045652 542.06593844 514.3239604 532.43536934 516.47414327 522.7746309 C518.92458503 511.7846053 521.54261313 500.84145229 524.22881246 489.90683305 C527.31234772 477.35173519 530.25591059 464.77824773 533.06255269 452.15780962 C535.52331538 441.16107751 538.18757715 430.21919491 540.87618184 419.27637041 C543.60791416 408.14821304 546.19332345 396.99967401 548.63359761 385.80331743 C550.18695412 378.72009786 551.8760568 371.68370365 553.66631246 364.65683305 C555.89659651 355.89531237 557.95160962 347.10660891 559.91631246 338.28183305 C562.8490459 325.12492948 565.95260613 312.0130297 569.10381246 298.90683305 C572.5178347 284.69546901 575.9105719 270.47989757 579.20738912 256.24081743 C579.59087799 254.58484458 579.97524959 252.92907586 580.36058736 251.27353227 C584.65850259 233.16278037 584.65850259 233.16278037 586.04131246 214.65683305 C586.03567281 213.70018754 586.03003316 212.74354204 586.02422261 211.75790727 C585.58373817 185.80421487 574.71573603 163.61513415 556.72881246 145.40683305 C556.15904683 144.76487993 555.58928121 144.1229268 555.00224996 143.46152055 C541.23485331 128.28208322 519.67406314 119.77870142 499.72881246 117.40683305 C496.56806467 117.26969274 493.41182642 117.26894954 490.24846578 117.27540529 C489.30854382 117.27335265 488.36862186 117.27130002 487.40021741 117.26918519 C484.24476195 117.26352236 481.08935023 117.26497157 477.93389058 117.26639116 C475.65085161 117.26380708 473.3678131 117.26079381 471.08477521 117.25738776 C464.80571749 117.24931894 458.52667119 117.24752824 452.2476089 117.24679029 C446.17221041 117.2451295 440.09681826 117.23881108 434.02142291 117.23271188 C417.74310881 117.21665981 401.46479566 117.21074869 385.18647508 117.20596313 C377.47958966 117.20362554 369.77270498 117.20002262 362.06582014 117.19626775 C335.66567385 117.18343053 309.26552797 117.1727134 282.86537862 117.16926515 C281.20834823 117.16904352 279.55131785 117.16882174 277.89428747 117.1685998 C276.23331896 117.16837916 274.57235046 117.16815868 272.91138196 117.16793835 C269.5793666 117.16749581 266.24735125 117.16704869 262.91533589 117.16659868 C262.08919102 117.16648929 261.26304614 117.1663799 260.41186658 117.16626719 C233.6523943 117.16264036 206.89294917 117.14673534 180.13348728 117.12340831 C151.81914955 117.09877119 123.50482732 117.08509043 95.19047856 117.08389723 C92.0775241 117.08372579 88.96456965 117.08351037 85.85161519 117.0832628 C85.08515976 117.08320703 84.31870432 117.08315126 83.52902296 117.08309381 C71.2313154 117.08194647 58.93363584 117.07095121 46.63593771 117.05637575 C34.25473125 117.04195607 21.8735604 117.0388044 9.49234784 117.04681572 C2.79388158 117.05085942 -3.9044798 117.0498581 -10.60294032 117.03575838 C-16.74979024 117.02293885 -22.89647714 117.02428708 -29.04332709 117.03634909 C-31.2528007 117.03829228 -33.46228617 117.03529243 -35.67174315 117.02650473 C-55.08528505 116.95425555 -74.24194439 118.57893166 -93.08368754 123.46933305 Z " fill="#2FC9BD" transform="translate(902.271187543869,603.5931669473648)"/>
<path d="M0 0 C0.81239136 0.07261047 1.62478271 0.14522095 2.46179199 0.22003174 C24.05303221 2.15523376 45.38129586 5.11171097 66.7237854 8.90007019 C70.34576457 9.54222459 73.96968941 10.16312876 77.60107422 10.75 C86.39881778 12.17233173 95.08037082 13.78724866 103.75 15.875 C105.99204252 16.40556093 108.23423255 16.9354989 110.4765625 17.46484375 C111.57387695 17.72507324 112.67119141 17.98530273 113.80175781 18.25341797 C116.76662317 18.94552165 119.73574016 19.60787234 122.7109375 20.25390625 C136.34446355 23.21989475 149.66036966 26.91940995 163 31 C164.3748818 31.41559306 165.74988756 31.83077618 167.125 32.24560547 C200.85998964 42.44527303 233.97534391 54.23489071 266 69 C268.08287256 69.94762802 270.16621642 70.8942207 272.25 71.83984375 C277.28859482 74.13121778 282.31622039 76.44538723 287.33886719 78.77148438 C289.72435854 79.87274974 292.11483674 80.96200181 294.5078125 82.046875 C305.41394541 87.02994848 315.89401765 92.72088036 326.37207031 98.54345703 C328.75011704 99.86150114 331.1347455 101.16622523 333.5234375 102.46484375 C365.64914729 119.98862141 396.76696147 139.97307262 426 162 C427.04196533 162.78044678 427.04196533 162.78044678 428.10498047 163.57666016 C438.00852486 171.00932699 447.68152502 178.70468722 457.24853516 186.56445312 C458.79975281 187.83587211 460.35832934 189.0983011 461.91796875 190.359375 C473.16112409 199.46018612 484.035792 208.95800901 494.54980469 218.89135742 C497.81917078 221.97924677 501.13011157 225.00232244 504.5 227.98046875 C510.95714845 233.77470207 517.06425592 239.91431531 523.18725586 246.05688477 C525.19076986 248.06577864 527.19960152 250.06924389 529.20898438 252.07226562 C540.53671467 263.39411416 540.53671467 263.39411416 545.56469727 269.31958008 C548.06427133 272.24602476 550.73477627 275.01349923 553.375 277.8125 C558.02639178 282.78318955 562.4515005 287.86221192 566.70703125 293.1796875 C568.83461749 295.79658233 571.01989766 298.3445157 573.23583984 300.88598633 C579.96106932 308.60991563 586.19453952 316.6481609 592.35449219 324.82666016 C593.98637256 326.98200127 595.63439956 329.1238313 597.2890625 331.26171875 C621.37980099 362.40944906 642.79497883 395.64392338 662 430 C662.46696289 430.82951172 662.93392578 431.65902344 663.41503906 432.51367188 C677.67881428 457.90894089 690.84982499 484.08677861 702 511 C702.29112671 511.7014917 702.58225342 512.4029834 702.88220215 513.12573242 C715.81652485 544.33656014 727.59779878 575.76398713 736.30029297 608.43701172 C737.10632599 611.38946624 737.99310442 614.3106405 738.89819336 617.23388672 C742.82007189 629.96527495 745.62885046 642.99524005 748.54498291 655.98510742 C748.99114165 657.96077371 749.44431914 659.9346908 749.89990234 661.90820312 C756.73979849 691.69110794 760.87979302 721.83214996 764.25 752.1875 C764.36569839 753.20922302 764.36569839 753.20922302 764.48373413 754.25158691 C767.66288615 782.67990124 768.37668162 811.05287309 768.3125 839.625 C768.3102761 841.37866205 768.30809966 843.13232416 768.30596924 844.88598633 C768.16580629 928.25286887 757.04077312 1011.62213358 730.96191406 1091.01660156 C729.97355976 1094.08200502 729.0342655 1097.15942857 728.1015625 1100.2421875 C725.75742272 1107.89501418 723.1593751 1115.4524637 720.5 1123 C720.24155304 1123.73411102 719.98310608 1124.46822205 719.71682739 1125.22457886 C714.35720453 1140.39100604 708.35484632 1155.22103619 702 1170 C701.33798584 1171.55726807 701.33798584 1171.55726807 700.66259766 1173.14599609 C686.70982635 1205.93317347 671.09391882 1238.66124654 652.26074219 1268.95556641 C650.72064333 1271.45300789 649.20810762 1273.96639609 647.6953125 1276.48046875 C641.42620572 1286.88237805 635.08508977 1297.19955214 628.21972656 1307.21972656 C626.93989502 1309.08772728 625.66898935 1310.96161489 624.3984375 1312.8359375 C614.38472951 1327.55663346 603.97042868 1341.97738529 593 1356 C592.10780585 1357.15083467 591.21588637 1358.30188232 590.32421875 1359.453125 C585.34505845 1365.86008074 580.25531995 1372.14866853 574.98242188 1378.31640625 C572.11800892 1381.66707476 569.32327607 1385.06270943 566.5625 1388.5 C562.19185181 1393.87503413 557.51881613 1398.92823702 552.79296875 1403.98828125 C550.5376955 1406.40653176 548.34489735 1408.86854061 546.1875 1411.375 C543.53487711 1414.44510591 540.7269742 1417.29689759 537.83105469 1420.13647461 C536.11143393 1421.88658998 534.52085898 1423.68869547 532.93359375 1425.55859375 C528.37924251 1430.79471246 523.47807341 1435.66788852 518.5625 1440.5625 C517.65951172 1441.46935547 516.75652344 1442.37621094 515.82617188 1443.31054688 C511.25653481 1447.87356608 506.64468007 1452.31396596 501.72045898 1456.49389648 C499.89709516 1458.09008371 498.1964135 1459.77018457 496.5 1461.5 C492.83733858 1465.21182466 488.96063486 1468.61067228 485 1472 C483.95692878 1472.89571402 482.91396855 1473.7915573 481.87109375 1474.6875 C479.48338187 1476.73780302 477.09205037 1478.78380078 474.69921875 1480.828125 C472.31513925 1482.86716499 469.94307537 1484.91871722 467.58203125 1486.984375 C460.08814017 1493.51909128 452.36143004 1499.65147291 444.42578125 1505.640625 C440.6504066 1508.49205063 436.9278856 1511.40552261 433.21289062 1514.33496094 C425.20775114 1520.63256637 417.06896012 1526.60384675 408.60009766 1532.26025391 C406.05346466 1533.96422637 403.51404308 1535.67864643 400.97550964 1537.39465332 C379.25081816 1552.0692356 357.11838359 1565.81268693 334.28320312 1578.70410156 C332.22787014 1579.87066567 330.18190723 1581.05125991 328.140625 1582.2421875 C320.40376708 1586.74076778 312.5341966 1590.86929441 304.49169922 1594.78515625 C302.70497567 1595.65628464 300.92038676 1596.53179653 299.13720703 1597.41015625 C265.66114754 1613.89262344 231.40706783 1628.16826347 196 1640 C195.37526794 1640.20902954 194.75053589 1640.41805908 194.10687256 1640.63342285 C174.89211424 1647.05456618 155.64613196 1653.0156969 136 1658 C134.52731988 1658.37881348 133.05466125 1658.75771047 131.58203125 1659.13671875 C128.45129251 1659.94144008 125.31131669 1660.70681268 122.17030334 1661.47035217 C120.69908456 1661.82939315 119.22850953 1662.1910804 117.75852966 1662.55516052 C104.41362165 1665.8588761 91.04198085 1668.63723678 77.5 1671 C76.53001068 1671.17019653 75.56002136 1671.34039307 74.56063843 1671.51574707 C55.42886992 1674.86000582 36.3027621 1677.84148375 17 1680 C15.73183441 1680.14565399 15.73183441 1680.14565399 14.43804932 1680.29425049 C-14.84440443 1683.63811471 -43.99830023 1684.37182586 -73.4375 1684.375 C-74.27063469 1684.37597813 -75.10376938 1684.37695625 -75.96215057 1684.37796402 C-106.78872738 1684.4126764 -137.56774085 1683.56678116 -168.1875 1679.75 C-169.99031109 1679.5316184 -171.79312699 1679.31327651 -173.59594727 1679.0949707 C-179.06763392 1678.42416144 -184.53448287 1677.71920592 -190 1677 C-190.86810303 1676.88613953 -191.73620605 1676.77227905 -192.63061523 1676.65496826 C-215.28315646 1673.66453905 -237.55241929 1669.70655646 -259.79090881 1664.45309448 C-265.75397334 1663.04515306 -271.73358832 1661.71748707 -277.72103882 1660.41732788 C-284.13732772 1659.01035635 -290.4746459 1657.35648543 -296.78125 1655.51953125 C-297.60238281 1655.28057129 -298.42351563 1655.04161133 -299.26953125 1654.79541016 C-300.17058594 1654.5329248 -301.07164062 1654.27043945 -302 1654 C-303.02480469 1653.70528809 -304.04960938 1653.41057617 -305.10546875 1653.10693359 C-335.30052225 1644.3964848 -365.17229208 1634.55627178 -394.09960938 1622.23486328 C-396.81586876 1621.07839527 -399.53919092 1619.94081837 -402.265625 1618.80859375 C-436.02335894 1604.69219619 -468.96692287 1588.42158508 -500.34179688 1569.58789062 C-502.80522446 1568.11635012 -505.28158203 1566.67075466 -507.765625 1565.234375 C-530.63790414 1551.912368 -552.8405998 1536.89586781 -574 1521 C-575.24281738 1520.06945801 -575.24281738 1520.06945801 -576.51074219 1519.12011719 C-588.2171536 1510.33495443 -599.74286347 1501.35435229 -611 1492 C-611.92111572 1491.23550537 -611.92111572 1491.23550537 -612.86083984 1490.45556641 C-618.43419053 1485.81776888 -623.92999409 1481.19049965 -629 1476 C-618.74510806 1468.54992402 -608.46384215 1461.15460585 -598 1454 C-593.89127687 1455.68769067 -590.84454505 1458.59574756 -587.5625 1461.5 C-581.51712836 1466.75810758 -575.31595403 1471.75064507 -568.90966797 1476.56298828 C-566.7479864 1478.18963846 -564.59489967 1479.82737024 -562.44140625 1481.46484375 C-539.47218647 1498.87570825 -515.69389524 1515.12533082 -491 1530 C-489.95585938 1530.64324219 -488.91171875 1531.28648438 -487.8359375 1531.94921875 C-454.3689641 1552.47356473 -419.14294216 1569.75965971 -383 1585 C-381.94296875 1585.44843262 -380.8859375 1585.89686523 -379.796875 1586.35888672 C-367.0306291 1591.75822338 -354.1344537 1596.57818853 -341 1601 C-340.06430176 1601.3182373 -339.12860352 1601.63647461 -338.16455078 1601.96435547 C-335.17392524 1602.98141634 -332.18116987 1603.99193746 -329.1875 1605 C-327.87579834 1605.44388062 -327.87579834 1605.44388062 -326.53759766 1605.89672852 C-307.93928955 1612.10223054 -289.157483 1617.4329926 -270.125 1622.125 C-269.07130219 1622.38590424 -268.01760437 1622.64680847 -266.93197632 1622.9156189 C-251.68858445 1626.68384751 -236.49213916 1630.39509022 -221 1633 C-220.2522229 1633.12721436 -219.5044458 1633.25442871 -218.73400879 1633.38549805 C-133.98744706 1647.78185621 -47.91521192 1650.68436304 163.89697266 1609.99707031 C167.16920604 1608.94563041 170.44883747 1607.92014418 173.73046875 1606.8984375 C175.94548957 1606.20368927 178.16033907 1605.50839458 180.375 1604.8125 C181.36717529 1604.50368896 182.35935059 1604.19487793 183.3815918 1603.87670898 C189.42231076 1601.95561246 195.23530204 1599.70969529 201.06591797 1597.2253418 C204.69292943 1595.71061634 208.36699427 1594.36282497 212.0612793 1593.02270508 C255.78226364 1577.1314076 298.22182247 1555.99351411 338 1532 C338.90443848 1531.4548877 339.80887695 1530.90977539 340.74072266 1530.34814453 C365.72343815 1515.22403835 389.79638479 1498.72701925 413 1481 C414.10093994 1480.16033691 414.10093994 1480.16033691 415.22412109 1479.30371094 C424.31762013 1472.35111467 433.21134159 1465.24035418 441.84375 1457.72265625 C444.65106101 1455.28236386 447.53060743 1452.94623921 450.4375 1450.625 C456.26235406 1445.8998234 461.68484056 1440.7773527 467.12890625 1435.625 C469.8448907 1433.05698721 472.61819009 1430.56937636 475.421875 1428.09765625 C482.35540047 1421.87784697 488.89388088 1415.25544917 495.46899414 1408.66137695 C497.68979307 1406.43520138 499.91590966 1404.21444368 502.14257812 1401.99414062 C503.57844584 1400.55761229 505.01400343 1399.12077389 506.44921875 1397.68359375 C507.10355392 1397.03128281 507.7578891 1396.37897186 508.43205261 1395.70689392 C512.26517101 1391.85453201 515.91754373 1387.89344271 519.46336365 1383.77474976 C521.70501509 1381.1857375 524.04080792 1378.69342693 526.375 1376.1875 C530.6687538 1371.53961458 534.7353184 1366.75583652 538.703125 1361.82421875 C540.72569323 1359.33728537 542.79247603 1356.89633224 544.88305664 1354.46655273 C551.40216014 1346.87626238 557.45955621 1338.9683819 563.48925781 1330.98681641 C564.83038844 1329.22306058 566.18610115 1327.47294725 567.5546875 1325.73046875 C620.63596226 1257.94307033 660.54567934 1179.01479534 688.08349609 1097.66699219 C689.22745525 1094.33811371 690.45416883 1091.04671381 691.6875 1087.75 C694.07135064 1081.13911524 695.88987557 1074.39286581 697.68237305 1067.60253906 C698.9666949 1062.74049582 700.31794741 1057.90893718 701.7674408 1053.09396362 C704.69871068 1043.33011597 707.16441167 1033.49860219 709.4375 1023.5625 C709.72639099 1022.30584534 709.72639099 1022.30584534 710.02111816 1021.02380371 C713.81221547 1004.46203742 716.99391931 987.84258909 719.6685791 971.06616211 C719.99674342 969.02030234 720.33289431 966.97589552 720.67089844 964.93164062 C725.07679548 938.11204187 727.15503525 911.10103211 729 884 C729.05548004 883.2112851 729.11096008 882.42257019 729.16812134 881.60995483 C730.09574435 868.22364961 730.19979699 854.85240338 730.1875 841.4375 C730.18722809 840.31649902 730.18695618 839.19549805 730.18667603 838.04052734 C730.16731128 820.60296448 729.72050435 803.30989363 728.31640625 785.92529297 C728.09740819 783.20843283 727.88737185 780.49240591 727.69140625 777.77392578 C726.21365475 757.29276803 723.8220035 737.07685559 720.59667969 716.79882812 C720.06204368 713.39500807 719.55833252 709.98887858 719.0703125 706.578125 C713.40325265 667.77595228 703.17989561 629.20848271 691 592 C690.79352844 591.36727173 690.58705688 590.73454346 690.37432861 590.0826416 C683.86337574 570.15773771 676.46578407 550.70265983 668.39501953 531.35986328 C667.2103238 528.50655865 666.04704304 525.64685362 664.90234375 522.77734375 C661.71145375 514.79398243 658.15089613 507.08790173 654.234375 499.4375 C652.04143233 495.13121331 649.98333912 490.7654935 647.92358398 486.39428711 C643.90367107 477.86843169 639.81332267 469.50347294 634.94921875 461.42578125 C633.27014274 458.47477992 631.77117231 455.51492823 630.28515625 452.46484375 C626.82660437 445.48785865 622.82915813 438.87378977 618.75 432.25 C617.98410692 430.99975728 617.21848479 429.74934855 616.453125 428.4987793 C614.96210449 426.06479904 613.46789446 423.63282573 611.97070312 421.20263672 C610.39445004 418.64103017 608.82679508 416.07470628 607.265625 413.50390625 C595.54967004 394.32987812 582.55193029 375.91297672 569 358 C568.52449707 357.3714209 568.04899414 356.7428418 567.55908203 356.09521484 C562.15387611 348.97253899 556.62746065 341.94830447 551 335 C550.31550781 334.15179687 549.63101562 333.30359375 548.92578125 332.4296875 C540.51177377 322.06701402 531.86515041 311.9167547 522.7956543 302.12182617 C520.28956805 299.41521657 517.83610348 296.67710687 515.4375 293.875 C511.96509549 289.8613334 508.19177936 286.1773554 504.41796875 282.44921875 C501.69382113 279.68986405 499.16658369 276.80627028 496.640625 273.8671875 C492.78706973 269.4814746 488.61224557 265.49029338 484.1875 261.6875 C480.97666245 258.92381971 477.97732835 256.01380404 475 253 C471.46686601 249.42916488 467.86626905 246.03448775 464.05078125 242.76953125 C461.72433417 240.76213977 459.45807314 238.69533362 457.1875 236.625 C452.86739209 232.72636603 448.41928619 229.02496142 443.89453125 225.3671875 C441.38671837 223.3162636 438.9194224 221.22618671 436.46362305 219.11352539 C428.24146259 212.05639212 419.67192424 205.49237938 411 199 C410.22285645 198.41782715 409.44571289 197.8356543 408.64501953 197.23583984 C398.54305518 189.6877313 388.33590102 182.32435356 377.88232422 175.27050781 C376.0547712 174.03696879 374.23235355 172.79611871 372.41015625 171.5546875 C348.82525157 155.57314972 324.09522444 141.44945205 299 128 C298.03884277 127.48179687 297.07768555 126.96359375 296.08740234 126.4296875 C264.00842601 109.18783492 230.48910447 95.28922288 196.375 82.625 C195.58374725 82.32972412 194.79249451 82.03444824 193.9772644 81.73022461 C184.30767689 78.13076342 174.61130975 74.88983667 164.68896484 72.05908203 C161.14011515 71.04022631 157.63288478 69.94022313 154.12744141 68.78369141 C122.42099633 58.35404147 89.0691762 51.29770696 56.06469727 46.48364258 C53.12433167 46.01962089 50.20093336 45.48815477 47.27461243 44.94342041 C36.26057105 42.91103097 25.19630738 41.61880185 14.0625 40.4375 C13.05002197 40.32983307 12.03754395 40.22216614 10.99438477 40.11123657 C-38.81295327 34.85853029 -90.05841593 33.27032806 -140 38 C-140.85130493 38.08012329 -141.70260986 38.16024658 -142.57971191 38.24279785 C-175.62065764 41.38349429 -208.3376215 45.5653743 -240.75 52.8125 C-241.92868652 53.07603271 -243.10737305 53.33956543 -244.32177734 53.61108398 C-246.72926769 54.14977658 -249.13665779 54.68891739 -251.54394531 55.22851562 C-254.71260992 55.9358468 -257.88318197 56.63366555 -261.0546875 57.328125 C-270.72926705 59.46169517 -280.26077385 61.81060739 -289.734375 64.7109375 C-292.62917063 65.5970176 -295.53205745 66.431397 -298.453125 67.2265625 C-387.31163302 91.51388436 -471.4732575 134.23223257 -546 188 C-546.76554199 188.55155762 -547.53108398 189.10311523 -548.31982422 189.67138672 C-558.19312771 196.80713817 -567.82441838 204.15977669 -577.22265625 211.91015625 C-580.26719202 214.41719123 -583.3610217 216.85004444 -586.48266602 219.26000977 C-592.71343275 224.0723066 -598.58836247 229.13717803 -604.3359375 234.515625 C-606.52412527 236.55622239 -608.73670962 238.54407004 -611 240.5 C-618.35380233 246.88660077 -625.55309363 253.45315312 -632.375 260.40625 C-634.10535497 262.10332891 -635.90784164 263.67525172 -637.75 265.25 C-645.12838247 271.62549553 -651.93257869 278.62431473 -658.2578125 286.0390625 C-660.2543789 288.28631885 -662.36012946 290.38894927 -664.5 292.5 C-668.54812803 296.50730657 -672.30889707 300.66476342 -676 305 C-676.89282159 306.04071438 -677.78608742 307.08104773 -678.6796875 308.12109375 C-680.73277175 310.51126168 -682.78146662 312.90510976 -684.828125 315.30078125 C-686.86716499 317.68486075 -688.91871722 320.05692463 -690.984375 322.41796875 C-698.14375813 330.62804229 -704.81101833 339.13980819 -711.36328125 347.83984375 C-712.96733969 349.95689463 -714.58916524 352.05880392 -716.21875 354.15625 C-728.192502 369.59235743 -739.34631134 385.62728333 -750 402 C-750.52561523 402.80630859 -751.05123047 403.61261719 -751.59277344 404.44335938 C-759.69879433 416.91914053 -767.38263246 429.56959381 -774.63574219 442.55957031 C-775.90716068 444.83392594 -777.18995868 447.10139848 -778.4765625 449.3671875 C-804.61705794 495.61371327 -825.77910195 544.4225896 -842 595 C-842.30228516 595.928125 -842.60457031 596.85625 -842.91601562 597.8125 C-851.46967077 624.16413325 -858.27460472 651.08729566 -864 678.1875 C-864.14188751 678.85878937 -864.28377502 679.53007874 -864.42996216 680.22171021 C-866.1579999 688.45176538 -867.6770141 696.69592632 -869 705 C-869.22961426 706.38892456 -869.22961426 706.38892456 -869.46386719 707.8059082 C-872.65248187 727.12978218 -875.04865273 746.51753334 -877 766 C-877.07732361 766.75782776 -877.15464722 767.51565552 -877.23431396 768.29644775 C-882.01947587 815.48965071 -881.37155463 863.27664189 -877.21749878 910.49298096 C-876.99133398 913.09988965 -876.77948883 915.70773193 -876.56860352 918.31591797 C-875.45583551 931.71297924 -873.71596669 944.96313639 -871.6875 958.25 C-871.53249023 959.27592255 -871.37748047 960.30184509 -871.21777344 961.3588562 C-864.46621557 1005.9757188 -853.58831583 1049.08036725 -839.88632202 1092.03620911 C-838.502541 1096.38237901 -837.16945929 1100.74146341 -835.85546875 1105.109375 C-834.49080476 1109.57258823 -832.92096473 1113.75140392 -831 1118 C-830.17557474 1120.20390911 -829.36403509 1122.41266326 -828.5625 1124.625 C-822.76679205 1140.25430057 -816.45342462 1155.75933161 -809.3671875 1170.8515625 C-808.91971916 1171.80494507 -808.91971916 1171.80494507 -808.46321106 1172.77758789 C-807.02647314 1175.82765097 -805.57325652 1178.86802793 -804.10131836 1181.90136719 C-803.57932861 1182.99352539 -803.05733887 1184.08568359 -802.51953125 1185.2109375 C-801.82500854 1186.63865479 -801.82500854 1186.63865479 -801.11645508 1188.09521484 C-798.26853348 1195.50491769 -799.37669447 1201.46154064 -801.01953125 1208.97265625 C-801.2381633 1210.01393173 -801.45679535 1211.05520721 -801.68205261 1212.1280365 C-802.14491523 1214.32195944 -802.61339976 1216.51470292 -803.0871582 1218.70629883 C-803.81032177 1222.05242118 -804.51702622 1225.40168424 -805.22070312 1228.75195312 C-805.67352431 1230.88822346 -806.12726937 1233.02429821 -806.58203125 1235.16015625 C-806.89935966 1236.65567772 -806.89935966 1236.65567772 -807.22309875 1238.18141174 C-808.24452464 1242.89425071 -809.34072942 1247.46027005 -811 1252 C-814.95627916 1246.98237004 -817.75075717 1241.30607591 -820.75 1235.6875 C-821.0781369 1235.07353363 -821.4062738 1234.45956726 -821.74435425 1233.82699585 C-850.55101017 1179.79445172 -874.2906199 1121.96893904 -889.34765625 1062.5546875 C-889.89921292 1060.3946991 -890.47013123 1058.24280881 -891.0625 1056.09375 C-892.07782103 1052.40475026 -893.0462184 1048.70522893 -894 1045 C-894.36279053 1043.6070874 -894.36279053 1043.6070874 -894.73291016 1042.18603516 C-906.54969534 996.4356758 -913.53773301 949.09647169 -917 902 C-917.08732895 900.8280307 -917.1746579 899.6560614 -917.26463318 898.44857788 C-917.98267449 888.01582229 -918.17770893 877.62713235 -918.203125 867.171875 C-918.21014225 865.38601658 -918.21722911 863.60015843 -918.22438049 861.81430054 C-918.243825 856.12619681 -918.24881506 850.43813359 -918.25 844.75 C-918.25044186 843.78256615 -918.25088371 842.81513229 -918.25133896 841.81838226 C-918.25822224 813.11404968 -918.10266335 784.56783554 -915 756 C-914.91278687 755.17689331 -914.82557373 754.35378662 -914.73571777 753.5057373 C-910.99088965 718.27543013 -905.36255278 683.43493544 -897 649 C-896.59797437 647.33528825 -896.1959565 645.67057462 -895.79394531 644.00585938 C-894.50163932 638.66709775 -893.19046549 633.33309479 -891.875 628 C-891.56604797 626.73851135 -891.56604797 626.73851135 -891.25085449 625.45153809 C-888.89689095 615.8706667 -886.29294828 606.48456168 -883.08056641 597.15478516 C-881.8371762 593.52462515 -880.77703099 589.88399645 -879.75 586.1875 C-871.45367095 557.38777392 -860.13968258 529.37237659 -848 502 C-847.61473145 501.12649902 -847.22946289 500.25299805 -846.83251953 499.35302734 C-835.10433539 472.88491846 -822.2838001 446.65656553 -807.59082031 421.703125 C-805.94967291 418.91448412 -804.33068719 416.11361369 -802.7109375 413.3125 C-787.95471085 388.04701144 -771.60966792 363.37067227 -754 340 C-753.21955322 338.95803467 -753.21955322 338.95803467 -752.42333984 337.89501953 C-744.99067301 327.99147514 -737.29531278 318.31847498 -729.43554688 308.75146484 C-728.16412789 307.20024719 -726.9016989 305.64167066 -725.640625 304.08203125 C-716.11061812 292.30864684 -706.10649592 280.9666437 -695.76196289 269.90551758 C-694.40989103 268.44328661 -693.07023449 266.96956754 -691.73608398 265.4909668 C-684.50713355 257.50567826 -676.99275689 249.8386432 -669.36499023 242.23461914 C-667.30139939 240.17642843 -665.24326325 238.1128902 -663.18554688 236.04882812 C-661.8492791 234.71322066 -660.51270143 233.37792316 -659.17578125 232.04296875 C-658.57349197 231.43865524 -657.9712027 230.83434174 -657.35066223 230.2117157 C-653.63033688 226.51145258 -649.78973876 223.00039701 -645.81396484 219.57585144 C-643.03771705 217.16403288 -640.36936447 214.64054401 -637.6875 212.125 C-632.8935086 207.66495644 -627.97489004 203.43690447 -622.8671875 199.3359375 C-619.58420303 196.66124443 -616.38760296 193.89765875 -613.1875 191.125 C-606.95489412 185.75282168 -600.57841427 180.60686277 -594.05957031 175.58691406 C-592.58539594 174.45105188 -591.11366487 173.31201588 -589.64355469 172.17089844 C-578.23847724 163.32281554 -566.68707885 154.81173539 -554.68212891 146.79589844 C-551.71047912 144.80614277 -548.75184583 142.79775861 -545.79296875 140.7890625 C-521.28513266 124.19880358 -496.05778057 109.04372296 -470 95 C-468.95779297 94.43829102 -467.91558594 93.87658203 -466.84179688 93.29785156 C-412.62557645 64.24736262 -353.79052078 40.34885241 -293.96069336 25.76269531 C-290.94728639 24.98642061 -287.95969416 24.14146325 -284.96789551 23.28663635 C-273.84174922 20.12124503 -262.62537948 17.53006236 -251.3125 15.125 C-250.3057724 14.91067322 -249.2990448 14.69634644 -248.2618103 14.4755249 C-211.65666319 6.74270323 -174.75888354 1.95537802 -137.46398926 -0.81573486 C-135.13405548 -0.98997489 -132.80480695 -1.17149291 -130.47558594 -1.35498047 C-87.0744245 -4.71910807 -43.32507639 -3.95337351 0 0 Z " fill="#2FC8BC" transform="translate(1132,201)"/>
</svg>
