<svg xmlns="http://www.w3.org/2000/svg" width="200" height="100" viewBox="0 0 1000 300"><g transform="scale(5)"><g transform="translate(21775 1120.545)"><path d="M137.951,33.849a7.173,7.173,0,0,0-7.01,5.552l-1.9,8.083a3.291,3.291,0,0,0,3.2,4.044h15.5a5.16,5.16,0,0,0,5.042-3.993L155.2,37.267a2.782,2.782,0,0,0-2.707-3.418Zm9.79,20.968h-15.5a6.581,6.581,0,0,1-6.4-8.086l1.9-8.083a10.449,10.449,0,0,1,10.211-8.087h14.541a6.071,6.071,0,0,1,5.908,7.46l-2.416,10.267a8.437,8.437,0,0,1-8.243,6.529" transform="translate(-21846.281 -1137.88)" fill="#f4f4f4"></path><path d="M402.456,104.693a3.882,3.882,0,0,0-2.475-.647h-1.4V110.7h1.376a3.828,3.828,0,0,0,2.436-.637,3.176,3.176,0,0,0,1.335-2.685,3.3,3.3,0,0,0-1.276-2.684m-.649,4.581a2.879,2.879,0,0,1-1.767.47H399.6V105h.439a2.98,2.98,0,0,1,1.777.46,2.371,2.371,0,0,1,.9,1.916,2.343,2.343,0,0,1-.908,1.9" transform="translate(-22001.102 -1179.566)" fill="#f4f4f4"></path><path d="M379.865,110.111v-4.649l4.83,5.058v-7.064h-1.017v4.609l-4.829-5.058v7.1Z" transform="translate(-21989.906 -1178.977)" fill="#f4f4f4"></path><path d="M362.745,103.148l-3.312,7.043h1.1l.728-1.606H364.1l.7,1.606h1.1Zm-1.068,4.479,1.029-2.256.988,2.256Z" transform="translate(-21978.891 -1179.057)" fill="#f4f4f4"></path><path d="M349.334,104.046V110.7h2.972v-.956h-1.956v-5.7Z" transform="translate(-21973.164 -1179.566)" fill="#f4f4f4"></path><path d="M332.825,104.046h-1.017V110.7h1.017v-3.063h2.855V110.7H336.7v-6.654H335.68v2.635h-2.855Z" transform="translate(-21963.221 -1179.566)" fill="#f4f4f4"></path><path d="M319.487,104.248a3.166,3.166,0,0,0-1.777-.478,3.3,3.3,0,0,0-2.4.867,3.482,3.482,0,0,0-1.066,2.605,3.264,3.264,0,0,0,1.066,2.514,3.333,3.333,0,0,0,2.354.917,3.637,3.637,0,0,0,1.827-.5v-1.206a2.647,2.647,0,0,1-1.8.768,2.4,2.4,0,0,1-2.435-2.495,2.377,2.377,0,0,1,2.425-2.535,2.6,2.6,0,0,1,1.807.738Z" transform="translate(-21953.256 -1179.409)" fill="#f4f4f4"></path><path d="M303.711,104.886a2.26,2.26,0,0,0-.509-.667,1.958,1.958,0,0,0-1.337-.448,1.8,1.8,0,0,0-1.946,1.754,1.879,1.879,0,0,0,1.357,1.688l.638.269c.439.179.959.459.959,1.138a1.07,1.07,0,0,1-1.1,1.118,1.049,1.049,0,0,1-.868-.4,1.439,1.439,0,0,1-.28-.849l-1.007.219a2.157,2.157,0,0,0,.558,1.3,1.948,1.948,0,0,0,1.566.667,2.049,2.049,0,0,0,2.145-2.135c0-.758-.339-1.457-1.566-1.956l-.668-.269c-.649-.259-.719-.609-.719-.808a.825.825,0,0,1,.938-.8,1.034,1.034,0,0,1,1.019.658Z" transform="translate(-21944.961 -1179.409)" fill="#f4f4f4"></path><path d="M290.594,105v-.956h-4.07V105h1.526v5.7h1.017V105Z" transform="translate(-21937.533 -1179.566)" fill="#f4f4f4"></path><path d="M270.521,104.046v4.281a2.464,2.464,0,0,0,.618,1.725,2.58,2.58,0,0,0,3.692,0,2.458,2.458,0,0,0,.618-1.725v-4.281h-1.016v4.012a2.328,2.328,0,0,1-.21,1.148,1.458,1.458,0,0,1-2.477,0,2.327,2.327,0,0,1-.209-1.148v-4.012Z" transform="translate(-21928.457 -1179.566)" fill="#f4f4f4"></path><path d="M260.127,104.046h-3.671V110.7h3.671v-.956h-2.654v-2.1h2.574v-.957h-2.574V105h2.654Z" transform="translate(-21920.477 -1179.566)" fill="#f4f4f4"></path><path d="M242.943,104.693a3.888,3.888,0,0,0-2.477-.647h-1.4V110.7h1.376a3.825,3.825,0,0,0,2.435-.637,3.174,3.174,0,0,0,1.337-2.685,3.3,3.3,0,0,0-1.276-2.684m-.649,4.581a2.878,2.878,0,0,1-1.767.47h-.439V105h.439a2.982,2.982,0,0,1,1.777.46,2.373,2.373,0,0,1,.9,1.916,2.345,2.345,0,0,1-.908,1.9" transform="translate(-21910.615 -1179.566)" fill="#f4f4f4"></path><g transform="translate(-22057 -1186)"><path d="M15.556,33.849A6.863,6.863,0,0,0,8.85,39.16L5.167,54.809c1.1-.666,2.168-1.252,3.2-1.754a16.2,16.2,0,0,1,2.461-.98,15.542,15.542,0,0,1,4.63-.653l10.135.106a5.258,5.258,0,0,0,3.1-1.036,5.333,5.333,0,0,0,1.939-2.963l2.413-10.261a2.782,2.782,0,0,0-2.707-3.418ZM0,62.412,5.649,38.406a10.139,10.139,0,0,1,9.907-7.846H30.344a6.072,6.072,0,0,1,5.909,7.46L33.837,48.287a8.48,8.48,0,0,1-8.238,6.53h-.023l-10.145-.108a11.971,11.971,0,0,0-3.65.515,12.787,12.787,0,0,0-1.978.792,41.871,41.871,0,0,0-6.227,3.805Z" transform="translate(282 48.12)" fill="#00c4b3"></path><path d="M361.513,33.85A7.172,7.172,0,0,0,354.5,39.4l-1.9,8.082a3.274,3.274,0,0,0,.624,2.8,4.458,4.458,0,0,0,2.891,1.277,12.672,12.672,0,0,0,4.513-.01,29.754,29.754,0,0,0,5.352-1.3,13.393,13.393,0,0,1,4.15-.849,14.233,14.233,0,0,1,5.468.966c.284-1.424.6-2.825.955-4.182,1-3.868,1.284-4.866,1.3-4.907.653-2.457.881-3.856.91-4.008a2.881,2.881,0,0,0-.527-2.365,2.763,2.763,0,0,0-2.18-1.054Zm16.553,21.378-2-1.047a11.758,11.758,0,0,0-5.835-1.494,10.334,10.334,0,0,0-3.23.689A32.994,32.994,0,0,1,361.13,54.8a15.919,15.919,0,0,1-5.636-.01,7.514,7.514,0,0,1-4.846-2.465A6.546,6.546,0,0,1,349.4,46.73l1.9-8.081a10.451,10.451,0,0,1,10.211-8.087h14.541a6.036,6.036,0,0,1,4.758,2.3,6.205,6.205,0,0,1,1.15,5.159s-.235,1.479-.941,4.134c-.013.042-.3,1.054-1.281,4.851-.5,1.927-.931,3.946-1.287,6Z" transform="translate(83.898 48.119)" fill="#00c4b3"></path><path d="M268.393,54.826h0a1.644,1.644,0,0,1-1.223-1.978l3.348-14.2a10.45,10.45,0,0,1,10.21-8.086h11.5a6.262,6.262,0,0,1,4.672,2,6.048,6.048,0,0,1,1.4,5.457l-3.6,15.573a1.645,1.645,0,0,1-3.2-.742l3.6-15.579a2.773,2.773,0,0,0-.776-2.646,2.875,2.875,0,0,0-2.013-.777h-11.58a7.173,7.173,0,0,0-7.009,5.551l-3.348,14.2a1.643,1.643,0,0,1-1.978,1.223" transform="translate(130.471 48.119)" fill="#00c4b3"></path><path d="M92.5,54.615h0a1.644,1.644,0,0,1-1.2-1.986c.6-2.477,1.43-5.711,1.921-7.859s.955-4.169,1.329-5.662a10.714,10.714,0,0,1,4.3-6.665A11.654,11.654,0,0,1,104.14,30.2a1.642,1.642,0,0,1,.5,3.246,8.366,8.366,0,0,0-3.8,1.612,7.437,7.437,0,0,0-3.1,4.846c-.366,1.463-.825,3.473-1.312,5.6-.5,2.16-1.325,5.408-1.933,7.9a1.644,1.644,0,0,1-2,1.205" transform="translate(230.234 48.335)" fill="#00c4b3"></path><path d="M207.341,43.013h0a1.645,1.645,0,0,1-1.228-1.975L213.822,8.09A10.45,10.45,0,0,1,224.034,0h1.5A6.256,6.256,0,0,1,230.2,2a6.04,6.04,0,0,1,1.4,5.456l-.242,1.027a1.644,1.644,0,0,1-3.2-.753l.222-.945a2.874,2.874,0,0,0-.295-2.137A2.776,2.776,0,0,0,225.7,3.288h-1.663a7.175,7.175,0,0,0-7.01,5.551l-7.707,32.945a1.645,1.645,0,0,1-1.975,1.228" transform="translate(165.105 65.455)" fill="#00c4b3"></path><path d="M243,56.924h0a1.645,1.645,0,0,1-1.228-1.974L246.3,35.532a1.645,1.645,0,0,1,3.2.746L244.977,55.7A1.645,1.645,0,0,1,243,56.924" transform="translate(144.875 46.02)" fill="#00c4b3"></path><path d="M137.951,33.849a7.173,7.173,0,0,0-7.01,5.552l-1.9,8.083a3.291,3.291,0,0,0,3.2,4.044h15.5a5.16,5.16,0,0,0,5.042-3.993L155.2,37.267a2.782,2.782,0,0,0-2.707-3.418Zm9.79,20.968h-15.5a6.581,6.581,0,0,1-6.4-8.086l1.9-8.083a10.449,10.449,0,0,1,10.211-8.087h14.541a6.071,6.071,0,0,1,5.908,7.46l-2.416,10.267a8.437,8.437,0,0,1-8.243,6.529" transform="translate(210.719 48.12)" fill="#00c4b3"></path></g></g></g></svg>